<svg width="126" height="25" viewBox="0 0 126 25" fill="none" xmlns="http://www.w3.org/2000/svg">
<g id="Logo">
<g id="Vector">
<path id="Vector_2" d="M27.5637 24.342C26.2641 24.3449 25.4621 23.7468 24.1523 23.0431C22.8425 22.3394 19.0525 19.5029 19.0444 15.9613C19.0389 13.5588 18.4152 11.617 17.357 10.0708C16.3066 8.5365 14.886 7.47504 13.409 6.72684C12.6972 6.36638 11.9567 6.07194 11.2194 5.8289C10.7896 5.68731 10.5393 5.22672 10.7247 4.81402C11.8998 2.1967 14.5259 0.371564 17.5814 0.364617C21.7406 0.355162 25.1201 3.71917 25.1296 7.87852C25.1316 8.76835 24.9792 9.62262 24.6976 10.4157C25.8962 9.60394 27.3415 9.12857 28.8979 9.12503C33.0571 9.11558 36.4364 12.4796 36.4458 16.639C36.4572 21.6462 32.0633 24.3318 27.5637 24.342Z" fill="#8FB2F5"/>
<path id="Vector_3" d="M0.0447325 16.0941C0.0537576 20.0638 2.67847 23.3655 6.14728 24.0885C6.68289 24.2828 7.26089 24.3881 7.86361 24.3867L19.5645 24.3601C19.9569 24.3592 20.1266 23.834 19.8264 23.5812C17.7776 21.8556 16.2523 19.4206 16.2445 15.9677C16.2402 14.0704 15.7566 12.6896 15.0464 11.6524C14.3282 10.6032 13.3196 9.82017 12.1438 9.22444C10.9571 8.62342 9.66931 8.24175 8.43977 7.9719C8.15025 7.93604 7.85565 7.91775 7.55721 7.91843C3.39786 7.92788 0.0344886 11.5883 0.0447325 16.0941Z" fill="#8FB2F5"/>
</g>
<g id="Type">
<g id="Type Weather" filter="url(#filter0_i_323_283)">
<path d="M45.9934 18.924L41.64 5.10986L44.2373 5.10396L47.2063 15.0812L50.1198 5.10978L52.717 5.08468L55.6861 15.062L58.5994 5.07131L61.1967 5.0654L56.9165 18.8992L54.4731 18.9047L51.4223 9.08123L48.4367 18.9184L45.9934 18.924Z" fill="#FAFAFA"/>
<path d="M66.7215 19.1649C65.5991 19.1674 64.613 18.9425 63.7633 18.49C62.9136 18.0375 62.2483 17.4086 61.7674 16.6033C61.2933 15.798 61.0551 14.8706 61.0527 13.821C61.0501 12.6882 61.2806 11.7052 61.7441 10.8722C62.2076 10.0327 62.8529 9.38165 63.68 8.91897C64.507 8.45628 65.4647 8.22371 66.5529 8.22123C67.7027 8.21862 68.6785 8.4692 69.4804 8.97298C70.2891 9.47034 70.8896 10.1762 71.2818 11.0905C71.674 12.0048 71.8236 13.0829 71.7306 14.3247L69.277 14.3303L69.2751 13.4855C69.2657 12.3591 69.0516 11.5372 68.633 11.0197C68.2143 10.5023 67.5567 10.2446 66.6601 10.2466C65.6472 10.2489 64.895 10.545 64.4036 11.1349C63.9122 11.7184 63.6677 12.5734 63.6703 13.6998C63.6727 14.7494 63.9209 15.5616 64.415 16.1365C64.9091 16.7114 65.6283 16.9978 66.5728 16.9956C67.1819 16.9942 67.7052 16.8682 68.1427 16.6176C68.5869 16.3606 68.9283 15.9919 69.1668 15.5113L71.6116 16.197C71.1894 17.1323 70.5341 17.8602 69.6455 18.3806C68.7638 18.901 67.7891 19.1625 66.7215 19.1649ZM62.8915 14.3448L62.8876 12.5976L70.5152 12.5802L70.5192 14.3274L62.8915 14.3448Z" fill="#FAFAFA"/>
<path d="M76.932 19.1417C76.1312 19.1435 75.4534 19.0042 74.8984 18.7239C74.3433 18.4371 73.9216 18.0573 73.633 17.5844C73.3514 17.1114 73.2099 16.5901 73.2086 16.0205C73.2074 15.5213 73.2954 15.0731 73.4724 14.6759C73.6495 14.2723 73.9224 13.9261 74.2914 13.6373C74.6603 13.342 75.1388 13.1009 75.727 12.914C76.1715 12.7786 76.6914 12.6558 77.2866 12.5456C77.8886 12.4355 78.5386 12.3348 79.2364 12.2436C79.9412 12.146 80.6767 12.0419 81.4429 11.9314L80.5611 12.4038C80.5663 11.687 80.394 11.1594 80.0442 10.821C79.6944 10.4826 79.1054 10.3143 78.2773 10.3162C77.7777 10.3173 77.2954 10.4272 76.8305 10.6459C76.3656 10.8645 76.0414 11.2397 75.8578 11.7713L73.5978 11.114C73.8696 10.2366 74.3881 9.53142 75.1534 8.99848C75.9256 8.46553 76.9653 8.19756 78.2725 8.19459C79.258 8.19235 80.1241 8.34078 80.8708 8.63988C81.6243 8.93897 82.1833 9.4305 82.5475 10.1145C82.7468 10.4788 82.8675 10.8529 82.9094 11.2369C82.9513 11.6144 82.9728 12.0271 82.9738 12.4751L82.9883 18.8399L80.8222 18.8448L80.8171 16.5984L81.1772 16.9624C80.6793 17.7123 80.0954 18.2641 79.4255 18.6176C78.7624 18.9647 77.9312 19.1394 76.932 19.1417ZM77.4206 17.2974C77.9818 17.2961 78.4606 17.2022 78.8572 17.0157C79.2537 16.8292 79.568 16.6013 79.8001 16.3319C80.039 16.0626 80.1993 15.8094 80.2809 15.5724C80.4102 15.2777 80.4813 14.9416 80.4942 14.564C80.5138 14.1799 80.5234 13.8695 80.5229 13.6327L81.283 13.8422C80.5373 13.9527 79.8976 14.0501 79.3639 14.1345C78.8303 14.2189 78.3719 14.3 77.9888 14.3776C77.6057 14.4489 77.2671 14.5297 76.973 14.62C76.6858 14.7166 76.4431 14.8292 76.2449 14.9576C76.0467 15.0861 75.8931 15.2336 75.784 15.4003C75.6817 15.5669 75.6308 15.7622 75.6313 15.9862C75.6319 16.2422 75.7008 16.4693 75.8382 16.6673C75.9755 16.859 76.1743 17.0122 76.4346 17.1268C76.7018 17.2414 77.0305 17.2982 77.4206 17.2974Z" fill="#FAFAFA"/>
<path d="M92.1594 18.819C91.4274 18.9487 90.7089 19.0047 90.0039 18.9871C89.3058 18.9759 88.6793 18.859 88.1244 18.6362C87.5695 18.4071 87.1478 18.0464 86.8592 17.5543C86.605 17.1069 86.4705 16.6496 86.4557 16.1824C86.441 15.7152 86.4329 15.1873 86.4316 14.5985L86.4111 5.58408L88.8749 5.57848L88.8951 14.4585C88.8961 14.8745 88.9003 15.2392 88.9079 15.5528C88.9223 15.8664 88.9947 16.1222 89.1252 16.3203C89.3725 16.7038 89.7665 16.9173 90.3073 16.9609C90.848 17.0044 91.4639 16.9774 92.155 16.8799L92.1594 18.819ZM84.4096 10.283L84.4055 8.46865L92.1358 8.45107L92.1399 10.2655L84.4096 10.283Z" fill="#FAFAFA"/>
<path d="M102.212 18.7962L102.201 13.8042C102.2 13.4778 102.175 13.1163 102.127 12.7196C102.078 12.3229 101.964 11.9423 101.785 11.5779C101.613 11.2071 101.352 10.9037 101.003 10.6677C100.66 10.4317 100.194 10.3144 99.6059 10.3157C99.2911 10.3164 98.9798 10.3651 98.672 10.4618C98.3642 10.5585 98.084 10.7256 97.8313 10.9629C97.5855 11.1939 97.3877 11.5143 97.2381 11.9243C97.0884 12.3278 97.0143 12.8464 97.0158 13.48L95.5464 12.8977C95.5444 12.0145 95.7239 11.2141 96.085 10.4965C96.453 9.77886 96.9924 9.20803 97.7032 8.78401C98.414 8.3536 99.2895 8.13721 100.33 8.13484C101.151 8.13297 101.829 8.25943 102.363 8.51422C102.898 8.769 103.323 9.09444 103.639 9.49052C103.954 9.8866 104.188 10.3085 104.34 10.7561C104.491 11.2038 104.588 11.6292 104.63 12.0323C104.679 12.429 104.703 12.7521 104.704 13.0017L104.717 18.7905L102.212 18.7962ZM94.523 18.8137L94.4915 4.98971L96.6987 4.98469L96.7153 12.2615L97.013 12.2608L97.0279 18.808L94.523 18.8137Z" fill="#FAFAFA"/>
<path d="M112.437 19.0609C111.315 19.0635 110.329 18.8385 109.479 18.3861C108.629 17.9336 107.964 17.3047 107.483 16.4994C107.009 15.6941 106.771 14.7666 106.769 13.717C106.766 12.5842 106.996 11.6013 107.46 10.7682C107.923 9.92878 108.569 9.27771 109.396 8.81503C110.223 8.35235 111.181 8.11977 112.269 8.1173C113.419 8.11468 114.394 8.36527 115.196 8.86904C116.005 9.36641 116.605 10.0722 116.998 10.9866C117.39 11.9009 117.539 12.9789 117.446 14.2207L114.993 14.2263L114.991 13.3815C114.982 12.2551 114.768 11.4332 114.349 10.9158C113.93 10.3983 113.273 10.1406 112.376 10.1427C111.363 10.145 110.611 10.4411 110.119 11.031C109.628 11.6145 109.384 12.4695 109.386 13.5959C109.389 14.6455 109.637 15.4577 110.131 16.0326C110.625 16.6075 111.344 16.8938 112.289 16.8917C112.898 16.8903 113.421 16.7643 113.859 16.5137C114.303 16.2567 114.644 15.8879 114.883 15.4074L117.328 16.093C116.905 17.0284 116.25 17.7563 115.361 18.2767C114.48 18.7971 113.505 19.0585 112.437 19.0609ZM108.607 14.2408L108.603 12.4936L116.231 12.4763L116.235 14.2235L108.607 14.2408Z" fill="#FAFAFA"/>
<path d="M119.747 18.7563L119.724 8.38835L121.91 8.38338L121.916 10.9082L121.649 10.5824C121.785 10.2365 121.965 9.92246 122.191 9.64034C122.423 9.35182 122.699 9.11439 123.02 8.92806C123.294 8.75463 123.595 8.61955 123.923 8.5228C124.258 8.41964 124.6 8.35806 124.949 8.33807C125.298 8.31168 125.637 8.32371 125.966 8.37416L125.97 10.5342C125.642 10.4453 125.262 10.4174 124.831 10.4503C124.406 10.4833 124.023 10.5962 123.682 10.789C123.34 10.9625 123.06 11.184 122.841 11.4533C122.63 11.7226 122.473 12.0301 122.371 12.3759C122.269 12.7154 122.219 13.0835 122.22 13.4803L122.232 18.7507L119.747 18.7563Z" fill="#FAFAFA"/>
</g>
</g>
</g>
<defs>
<filter id="filter0_i_323_283" x="41.64" y="4.98462" width="84.3304" height="18.1802" filterUnits="userSpaceOnUse" color-interpolation-filters="sRGB">
<feFlood flood-opacity="0" result="BackgroundImageFix"/>
<feBlend mode="normal" in="SourceGraphic" in2="BackgroundImageFix" result="shape"/>
<feColorMatrix in="SourceAlpha" type="matrix" values="0 0 0 0 0 0 0 0 0 0 0 0 0 0 0 0 0 0 127 0" result="hardAlpha"/>
<feOffset dy="4"/>
<feGaussianBlur stdDeviation="2"/>
<feComposite in2="hardAlpha" operator="arithmetic" k2="-1" k3="1"/>
<feColorMatrix type="matrix" values="0 0 0 0 0 0 0 0 0 0 0 0 0 0 0 0 0 0 0.25 0"/>
<feBlend mode="normal" in2="shape" result="effect1_innerShadow_323_283"/>
</filter>
</defs>
</svg>
