<svg width="25" height="17" viewBox="0 0 25 17" fill="none" xmlns="http://www.w3.org/2000/svg">
<g id="Logo">
<g id="Vector">
<path id="Vector_2" d="M18.2043 16.0357C17.3474 16.0357 16.8195 15.6401 15.957 15.1742C15.0944 14.7082 12.5997 12.8323 12.5997 10.4972C12.5997 8.9131 12.1914 7.63187 11.496 6.61081C10.8057 5.59758 9.87065 4.89559 8.89788 4.40005C8.42911 4.16132 7.9413 3.96607 7.45555 3.80472C7.17237 3.71072 7.00804 3.40666 7.13091 3.13482C7.90962 1.41088 9.64388 0.211426 11.6585 0.211426C14.4008 0.211426 16.624 2.43452 16.624 5.17697C16.624 5.76368 16.5223 6.32671 16.3354 6.84917C17.1269 6.31576 18.0806 6.0045 19.1068 6.0045C21.8492 6.0045 24.0722 8.2276 24.0722 10.9701C24.0722 14.2715 21.1711 16.0357 18.2043 16.0357Z" fill="#8FB2F5"/>
<path id="Vector_3" d="M0.0722656 10.5563C0.0722656 13.1737 1.7979 15.3546 4.08395 15.8365C4.43681 15.9654 4.81775 16.0357 5.21515 16.0357H12.9301C13.1888 16.0357 13.3015 15.6897 13.104 15.5225C11.7557 14.3817 10.7536 12.7739 10.7536 10.4972C10.7536 9.24626 10.4368 8.33515 9.97015 7.6502C9.49817 6.95736 8.83434 6.43954 8.05998 6.04499C7.27842 5.64693 6.42992 5.39335 5.61964 5.21358C5.4288 5.1895 5.23459 5.177 5.03781 5.177C2.29536 5.177 0.0722656 7.58543 0.0722656 10.5563Z" fill="#8FB2F5"/>
</g>
</g>
</svg>
